<?xml version="1.0" encoding="UTF-8"?>
<svg width="144" height="144" version="1.1" viewBox="0 0 38.099999 38.100001" xmlns="http://www.w3.org/2000/svg" >
<defs>
<radialGradient id="b" cx="52.986" cy="35.263" r="64.654" gradientTransform="matrix(.50744 .2128 -.19021 .45357 -7.2909 245.22)" gradientUnits="userSpaceOnUse">
<stop stop-color="#08f6f6" stop-opacity=".98431" offset="0"/>
<stop stop-color="#00008b" stop-opacity=".9971" offset="1"/>
</radialGradient>
<filter id="c" x="-.40057" y="-.33834" width="1.8011" height="1.6767" color-interpolation-filters="sRGB">
<feGaussianBlur stdDeviation="0.25309433"/>
</filter>
<radialGradient id="a" cx="19.498" cy="283.25" r="8.8957" gradientUnits="userSpaceOnUse">
<stop stop-color="#feffff" offset="0"/>
<stop stop-color="#fff" stop-opacity=".99608" offset=".51217"/>
<stop stop-color="#ffff02" stop-opacity=".99608" offset="1"/>
</radialGradient>
<filter id="d" x="-.13881" y="-.16015" width="1.2776" height="1.3203" color-interpolation-filters="sRGB">
<feGaussianBlur stdDeviation="1.4391984"/>
</filter>
</defs>
<g transform="translate(0 -258.9)" shape-rendering="auto">
<rect y="258.9" width="38.1" height="38.1" ry="0" color="#000000" color-rendering="auto" fill-opacity=".0057971" image-rendering="auto" solid-color="#000000" style="isolation:auto;mix-blend-mode:normal"/>
<path transform="matrix(1.242 .013581 -.013364 1.2621 -1.2424 -76.89)" d="m19.56 272.29 15.243 25.647-29.832 0.37791z" color="#000000" color-rendering="auto" fill="#ffff5b" filter="url(#d)" image-rendering="auto" solid-color="#000000" stroke="#fff" stroke-linecap="square" stroke-width=".458" style="isolation:auto;mix-blend-mode:normal"/>
<path d="m19.243 265.52a16.577 19.255 0 0 0 -16.577 19.256 16.577 19.255 0 0 0 0.012919 0.41496h33.124a16.577 19.255 0 0 0 0.01809 -0.41496 16.577 19.255 0 0 0 -16.577 -19.256z" color="#000000" color-rendering="auto" fill="url(#b)" image-rendering="auto" solid-color="#000000" style="isolation:auto;mix-blend-mode:normal"/>
<circle cx="19.498" cy="283.25" r="8.4667" color="#000000" color-rendering="auto" fill="url(#a)" image-rendering="auto" solid-color="#000000" stroke="#00010b" stroke-opacity=".98431" stroke-width=".858" style="isolation:auto;mix-blend-mode:normal"/>
<g transform="matrix(1.3856 -1.2153 1.2352 1.3633 -301.81 -94.718)">
<path transform="matrix(.41438 -.20461 .073807 1.1488 -23.477 -44.666)" d="m-10.574 271.68-3.8645-0.67541 2.5172-3.009z" color="#000000" color-rendering="auto" fill="#dedede" fill-opacity=".87536" image-rendering="auto" solid-color="#000000" style="isolation:auto;mix-blend-mode:normal"/>
<path transform="matrix(.41438 -.20461 .073807 1.1488 -23.477 -44.666)" d="m-10.574 271.68-3.8645-0.67541 2.5172-3.009z" color="#000000" color-rendering="auto" fill="#f00" fill-opacity=".98844" image-rendering="auto" solid-color="#000000" style="isolation:auto;mix-blend-mode:normal"/>
<path transform="matrix(.41438 .20461 .073807 -1.1488 -23.48 583.86)" d="m-10.574 271.68-3.8645-0.67541 2.5172-3.009z" color="#000000" color-rendering="auto" fill="#040000" fill-opacity=".97688" image-rendering="auto" solid-color="#000000" style="isolation:auto;mix-blend-mode:normal"/>
<ellipse cx="-8.6445" cy="269.65" rx=".32573" ry=".34244" color="#000000" color-rendering="auto" fill="#fff" image-rendering="auto" solid-color="#000000" style="isolation:auto;mix-blend-mode:normal"/>
</g>
<ellipse transform="matrix(2.2366 1.2774 -1.4492 1.8743 -18.058 -330.82)" cx="154.17" cy="216.69" rx=".51989" ry="1.0664" color="#000000" color-rendering="auto" fill="#fefefe" fill-opacity=".93333" filter="url(#c)" image-rendering="auto" solid-color="#000000" style="isolation:auto;mix-blend-mode:normal"/>
</g>
</svg>
